<?xml version="1.0" encoding="UTF-8"?>
<svg version="1.1" xmlns="http://www.w3.org/2000/svg" width="500" height="500">
<path d="M0 0 C5.72702875 5.94682943 8.99859032 13.51061854 9.45703125 21.77734375 C8.51963426 37.7130925 -3.96843707 47.36007384 -14.546875 57.87890625 C-15.52072372 58.85088337 -16.49434707 59.82308634 -17.46775818 60.79550171 C-19.99550457 63.31948125 -22.52624168 65.84044002 -25.05767822 68.36071777 C-27.65424712 70.94694504 -30.24788717 73.53610614 -32.84179688 76.125 C-37.90603921 81.17860829 -42.97345628 86.22902172 -48.04296875 91.27734375 C-46.51480345 94.89880999 -44.36503697 97.18634959 -41.58081055 99.93481445 C-40.19378181 101.31193352 -40.19378181 101.31193352 -38.7787323 102.71687317 C-38.03692246 103.44632613 -38.03692246 103.44632613 -37.28012657 104.19051552 C-35.72378126 105.72122809 -34.17386185 107.25819358 -32.6254425 108.79692078 C-28.77641833 112.61926199 -24.91668976 116.4307352 -21.05712891 120.24243164 C-17.79746819 123.46245106 -14.54205236 126.68665237 -11.29203224 129.91640282 C-9.77345233 131.42212489 -8.24892179 132.92163427 -6.7240448 134.42097473 C1.81219055 142.89684008 8.74865919 150.72216253 9.33203125 163.27734375 C8.87847787 172.29398493 5.57795356 180.09231847 -1.04296875 186.27734375 C-8.09101313 191.34900773 -14.92016488 193.2820688 -23.578125 192.8515625 C-31.48628621 191.54096532 -37.90270471 188.1552855 -43.10546875 182.02734375 C-47.87537003 175.10516994 -49.83655668 167.610017 -49.04296875 159.27734375 C-46.68898536 149.29850114 -40.82954886 142.68987057 -34.04296875 135.27734375 C-30.16785148 135.82719147 -28.44720369 137.55289706 -25.79296875 140.33984375 C-25.0865625 141.07332031 -24.38015625 141.80679688 -23.65234375 142.5625 C-23.12125 143.12839844 -22.59015625 143.69429687 -22.04296875 144.27734375 C-23.51876636 147.70799369 -25.48979723 149.88793655 -28.10546875 152.52734375 C-32.08080442 156.9363524 -33.33080096 159.32881148 -33.04296875 165.27734375 C-31.8384409 169.52861852 -30.65476931 171.70924323 -27.41796875 174.71484375 C-22.16900246 177.14492074 -17.61577744 177.17223373 -12.16796875 175.27734375 C-8.60470087 171.92367986 -7.32500117 168.08139687 -6.83984375 163.2578125 C-7.23680572 153.19482645 -18.96382105 145.2221358 -25.5703125 138.65234375 C-26.56943903 137.65508698 -27.56834155 136.65760573 -28.56703186 135.65991211 C-31.17043825 133.06028696 -33.77683545 130.46368144 -36.38391113 127.86773682 C-39.05401149 125.20794612 -41.72121152 122.54525035 -44.38867188 119.8828125 C-49.60396913 114.67817487 -54.82243591 109.47673035 -60.04296875 104.27734375 C-60.8654863 104.63180069 -61.68800385 104.98625763 -62.53544617 105.35145569 C-63.61518204 105.81047775 -64.69491791 106.26949982 -65.80737305 106.74243164 C-67.41239937 107.42880455 -67.41239937 107.42880455 -69.04985046 108.12904358 C-72.45175416 109.43417295 -75.21728711 109.85962376 -78.85546875 109.71484375 C-79.92796875 109.67230469 -81.00046875 109.62976563 -82.10546875 109.5859375 C-85.66124203 109.21239217 -88.6973065 108.52224133 -92.04296875 107.27734375 C-89.05672847 114.39194605 -85.00400504 118.62621204 -79.33984375 123.7734375 C-77.61918016 125.39967039 -75.90048953 127.02799287 -74.18359375 128.65820312 C-71.49387943 131.19366596 -68.79454243 133.71341409 -66.05859375 136.19897461 C-49.95117893 150.89960925 -49.95117893 150.89960925 -48.90820312 158.11376953 C-48.74344066 162.27385866 -49.38895787 166.17840168 -50.04296875 170.27734375 C-49.69758519 173.11656504 -49.69758519 173.11656504 -49.04296875 175.27734375 C-55.31766871 170.0807094 -61.08958947 164.42942641 -66.8671875 158.69140625 C-67.37430582 158.18836346 -67.88142414 157.68532066 -68.40390968 157.16703415 C-71.08283732 154.50882548 -73.75857697 151.84745353 -76.43188477 149.18359375 C-79.1770369 146.44953705 -81.93367857 143.7273724 -84.69301128 141.00763893 C-86.8299371 138.89695155 -88.9578397 136.77733657 -91.08347511 134.65528488 C-92.09550968 133.64808956 -93.11089136 132.64424484 -94.12979698 131.64400101 C-102.3292917 123.58555942 -107.88725214 116.79572203 -108.23046875 104.96484375 C-108.21485647 101.82157228 -107.83360049 99.21575293 -106.91796875 96.21484375 C-105.84340232 92.4389367 -106.41705946 90.03370805 -107.51171875 86.33203125 C-109.52342382 78.55146605 -107.70120845 71.26530717 -104.04296875 64.27734375 C-94.82566093 52.5963421 -83.34953018 42.46605918 -72.8180542 31.98376465 C-70.35533674 29.53142713 -67.89558227 27.07612122 -65.43554688 24.62109375 C-60.64085056 19.8370011 -55.84297604 15.0561076 -51.04296875 10.27734375 C-50.38296875 10.60734375 -49.72296875 10.93734375 -49.04296875 11.27734375 C-49.2322998 11.78354248 -49.42163086 12.28974121 -49.61669922 12.8112793 C-50.2134696 15.43082016 -50.2134696 15.43082016 -49.44189453 18.65942383 C-48.46700482 24.53872141 -48.32958491 29.62925209 -51.66491699 34.78411865 C-57.14876679 41.42621052 -63.57114055 47.16663242 -69.91796875 52.96484375 C-72.76166988 55.63066312 -75.59303226 58.30856878 -78.415802 60.99653625 C-80.16853002 62.65820634 -81.93539348 64.30512541 -83.71774292 65.9349823 C-89.40973624 71.14006667 -89.40973624 71.14006667 -92.04296875 78.27734375 C-91.38941406 77.95507812 -90.73585937 77.6328125 -90.0625 77.30078125 C-86.26594771 76.01398086 -82.69527616 75.89540772 -78.73046875 75.90234375 C-77.9729834 75.90105469 -77.21549805 75.89976562 -76.43505859 75.8984375 C-70.65650725 76.00814894 -66.95852303 77.13138901 -62.04296875 80.27734375 C-59.05225889 80.58854049 -59.05225889 80.58854049 -57.24871826 78.85058594 C-56.25113495 77.84753418 -56.25113495 77.84753418 -55.23339844 76.82421875 C-54.0964151 75.69173706 -54.0964151 75.69173706 -52.9364624 74.53637695 C-52.12082825 73.708396 -51.30519409 72.88041504 -50.46484375 72.02734375 C-49.62004456 71.18067139 -48.77524536 70.33399902 -47.90484619 69.46166992 C-46.11258051 67.66266811 -44.32392304 65.8600656 -42.53857422 64.05419922 C-39.82497787 61.30971719 -37.10111359 58.57579314 -34.375 55.84375 C-32.63349534 54.0930637 -30.89259102 52.34177996 -29.15234375 50.58984375 C-27.9410379 49.37216309 -27.9410379 49.37216309 -26.70526123 48.12988281 C-22.42532165 43.79658242 -18.33079239 39.39574402 -14.44927979 34.69995117 C-13.75315582 33.9957605 -13.75315582 33.9957605 -13.04296875 33.27734375 C-12.38296875 33.27734375 -11.72296875 33.27734375 -11.04296875 33.27734375 C-10.35676844 31.95395743 -9.69510414 30.61784427 -9.04296875 29.27734375 C-8.65109375 28.53484375 -8.25921875 27.79234375 -7.85546875 27.02734375 C-6.42050451 22.17054169 -7.25710548 17.92051241 -9.41796875 13.40234375 C-11.5463361 10.61909413 -13.42032907 9.44715457 -16.79296875 8.52734375 C-20.81004369 8.21833799 -23.31983329 8.72039619 -27.04296875 10.27734375 C-30.28536557 13.30827991 -31.80254622 15.45089132 -33.04296875 19.71484375 C-33.04296875 26.58149226 -30.52659769 30.01058624 -25.85546875 34.71484375 C-24.59419167 35.91248883 -23.32649405 37.10357358 -22.04296875 38.27734375 C-23.52018297 41.72936014 -25.48090876 43.92696311 -28.16796875 46.52734375 C-28.89242187 47.23375 -29.616875 47.94015625 -30.36328125 48.66796875 C-30.91757813 49.1990625 -31.471875 49.73015625 -32.04296875 50.27734375 C-40.45185214 43.48555332 -47.67101147 36.52739344 -49.04296875 25.27734375 C-49.7907153 16.60348372 -47.38312536 8.74993951 -41.91796875 1.90234375 C-30.3863671 -10.17483905 -12.60878499 -10.6318818 0 0 Z M-85.04296875 92.27734375 C-81.35579437 94.73546 -79.39951171 94.58852539 -75.04296875 94.27734375 C-74.05296875 93.61734375 -73.06296875 92.95734375 -72.04296875 92.27734375 C-77.18386188 90.42662222 -79.99828146 90.06260299 -85.04296875 92.27734375 Z " fill="#033155" transform="translate(270.04296875,113.72265625)"/>
<path d="M0 0 C3.67393699 1.54849403 6.04945343 3.77854341 8.87280273 6.56640625 C9.34328033 7.02856033 9.81375793 7.49071442 10.29849243 7.96687317 C11.84899333 9.49332452 13.39177282 11.0272847 14.93359375 12.5625 C16.0144186 13.63435012 17.09531677 14.7061263 18.17628479 15.77783203 C20.44197728 18.0270424 22.70324459 20.28060392 24.9621582 22.53662109 C27.83953834 25.40863827 30.73268093 28.26418346 33.63017178 31.1158905 C35.87025207 33.3260263 38.09879617 35.54753164 40.32444954 37.77218628 C41.38515314 38.82871699 42.44992849 39.88117781 43.51901054 40.92922974 C51.07800446 48.35133701 58.35791371 56.21984326 59.16796875 67.296875 C59.20128373 71.48123657 59.09039942 75.16491999 57.875 79.1875 C56.85177499 83.64583754 57.64143894 85.69788998 59 90 C59.88032594 97.46181037 58.89146989 105.30134744 54.17480469 111.3347168 C53.09054199 112.50514526 53.09054199 112.50514526 51.984375 113.69921875 C51.17750244 114.5703833 50.37062988 115.44154785 49.53930664 116.33911133 C45.48733333 120.58509317 41.35784792 124.74549897 37.1875 128.875 C36.29256836 129.76614502 35.39763672 130.65729004 34.47558594 131.57543945 C31.65283646 134.38609425 28.82691459 137.1935363 26 140 C22.24698958 143.72615242 18.49759481 147.45589874 14.75 151.1875 C13.88656982 152.04263184 13.02313965 152.89776367 12.13354492 153.77880859 C11.34181885 154.56723145 10.55009277 155.3556543 9.734375 156.16796875 C9.03538086 156.86172607 8.33638672 157.5554834 7.61621094 158.27026367 C5.92201279 159.91941082 5.92201279 159.91941082 5 162 C4.34 162 3.68 162 3 162 C3 162.66 3 163.32 3 164 C2.01 164.33 1.02 164.66 0 165 C0.18852539 164.330896 0.37705078 163.66179199 0.57128906 162.97241211 C1.16611129 159.90833414 1.16611129 159.90833414 0.42089844 156.49829102 C-0.50988129 150.70928966 -0.69241534 145.64352534 2.56665039 140.55291748 C7.86133025 134.09956674 14.09161266 128.54689212 20.25 122.9375 C23.00196701 120.3637717 25.74146476 117.77787067 28.47210693 115.18153381 C30.16683163 113.57741578 31.87574165 111.98810823 33.60064697 110.41648865 C38.41838893 105.93930564 41.45938885 102.0862 44 96 C42.948125 96.495 41.89625 96.99 40.8125 97.5 C33.39844172 100.24740812 25.11578716 100.29900193 17.875 97.0625 C16.58020897 96.38090246 15.28806817 95.69421856 14 95 C13.01 94.67 12.02 94.34 11 94 C-2.365 107.365 -2.365 107.365 -16 121 C-23.875 114.25 -23.875 114.25 -27 111 C-25.39626852 106.99482604 -22.57886014 104.3228902 -19.5546875 101.359375 C-19.02481232 100.83232971 -18.49493713 100.30528442 -17.94900513 99.76226807 C-16.26232175 98.08674325 -14.56880436 96.41832278 -12.875 94.75 C-11.72740612 93.61244149 -10.58026539 92.47442564 -9.43359375 91.3359375 C-6.62761863 88.55196535 -3.81549536 85.7743424 -1 83 C-2.60373148 78.99482604 -5.42113986 76.3228902 -8.4453125 73.359375 C-8.97518768 72.83232971 -9.50506287 72.30528442 -10.05099487 71.76226807 C-11.73767825 70.08674325 -13.43119564 68.41832278 -15.125 66.75 C-16.27259388 65.61244149 -17.41973461 64.47442564 -18.56640625 63.3359375 C-21.37238137 60.55196535 -24.18450464 57.7743424 -27 55 C-25.52487842 51.92543087 -24.00176371 49.65248419 -21.625 47.1875 C-21.03976562 46.56230469 -20.45453125 45.93710938 -19.8515625 45.29296875 C-18 44 -18 44 -16.08178711 44.20239258 C-13.51269072 45.18670569 -12.55657175 46.33104858 -10.83984375 48.46875 C-6.68860069 53.43472301 -2.16063301 57.95003438 2.4375 62.5 C3.26443359 63.32242188 4.09136719 64.14484375 4.94335938 64.9921875 C6.95994959 66.99712113 8.97885236 68.99966253 11 71 C11.92945435 70.46620728 11.92945435 70.46620728 12.87768555 69.92163086 C18.74299383 66.74145659 23.1606521 65.252121 29.8125 65.5625 C30.53630859 65.56830078 31.26011719 65.57410156 32.00585938 65.58007812 C36.07339432 65.67294422 39.33936662 66.20923829 43 68 C40.76450709 61.01501971 36.52064186 57.27076069 31.17578125 52.41796875 C29.40612472 50.74764197 27.63861204 49.07504146 25.87304688 47.40039062 C23.10118362 44.78876767 20.31945353 42.19380335 17.49780273 39.63598633 C0.90203581 24.52336318 0.90203581 24.52336318 -0.17041016 16.86572266 C-0.33912092 12.46907103 0.30409087 8.33182246 1 4 C0.67671969 1.6318843 0.67671969 1.6318843 0 0 Z M24 81 C24 81.66 24 82.32 24 83 C27.01868434 84.50934217 29.67297229 84.17510672 33 84 C33.99 83.34 34.98 82.68 36 82 C31.58774263 80.52924754 28.51718381 79.63115642 24 81 Z " fill="#FA4105" transform="translate(279,124)"/>
<path d="M0 0 C4.95 0 9.9 0 15 0 C18.21952815 7.60166368 21.24118557 15.22026489 24 23 C25.31391118 19.72973178 26.62588516 16.45868982 27.9375 13.1875 C28.49727539 11.7943457 28.49727539 11.7943457 29.06835938 10.37304688 C29.42607422 9.48037109 29.78378906 8.58769531 30.15234375 7.66796875 C30.48226318 6.84578857 30.81218262 6.0236084 31.15209961 5.17651367 C31.81716342 3.46933143 32.42062266 1.73813203 33 0 C37.95 0 42.9 0 48 0 C48 0.99 48 1.98 48 3 C47.01 3 46.02 3 45 3 C45 14.22 45 25.44 45 37 C47.31 37 49.62 37 52 37 C52.24234375 35.80246094 52.4846875 34.60492188 52.734375 33.37109375 C54.83093161 23.14247071 57.1748715 13.05324983 60 3 C59.01 3 58.02 3 57 3 C57 2.01 57 1.02 57 0 C62.94 0 68.88 0 75 0 C76.14360692 4.62548158 77.28436526 9.25147757 78.41796875 13.87939453 C78.80433148 15.45304474 79.19233846 17.02629222 79.58203125 18.59912109 C80.14236863 20.8619121 80.6967475 23.12609275 81.25 25.390625 C81.42499023 26.09181458 81.59998047 26.79300415 81.78027344 27.51544189 C82.58128802 30.81811607 83 33.57284955 83 37 C85.64 37 88.28 37 91 37 C91 25.78 91 14.56 91 3 C89.68 2.67 88.36 2.34 87 2 C87.33 1.34 87.66 0.68 88 0 C92.04152915 -0.08746928 96.08281305 -0.14054982 100.125 -0.1875 C101.26710938 -0.21263672 102.40921875 -0.23777344 103.5859375 -0.26367188 C114.35107918 -0.35755392 114.35107918 -0.35755392 119 3 C121.49508858 6.74263288 121.33112659 8.90868692 121.375 13.375 C121.40335937 14.68210937 121.43171875 15.98921875 121.4609375 17.3359375 C120.93767625 21.49542101 119.9394989 23.08235611 117 26 C116.34 26.33 115.68 26.66 115 27 C115.73325207 28.48754006 116.48726078 29.96486192 117.25 31.4375 C117.66765625 32.26121094 118.0853125 33.08492188 118.515625 33.93359375 C119.82577099 36.16844475 119.82577099 36.16844475 122.171875 36.78515625 C123.07679688 36.89150391 123.07679688 36.89150391 124 37 C124 37.66 124 38.32 124 39 C119.05 39 114.1 39 109 39 C107.79557292 36.16796875 106.59114583 33.3359375 105.38671875 30.50390625 C104.19721777 27.68979416 104.19721777 27.68979416 101 27 C101 30.3 101 33.6 101 37 C102.32 37 103.64 37 105 37 C105 37.66 105 38.32 105 39 C93.12 39 81.24 39 69 39 C69 38.34 69 37.68 69 37 C69.99 37 70.98 37 72 37 C71.505 35.02 71.505 35.02 71 33 C67.7 32.67 64.4 32.34 61 32 C61 33.32 61 34.64 61 36 C61.99 36.495 61.99 36.495 63 37 C63 37.66 63 38.32 63 39 C52.44 39 41.88 39 31 39 C31 38.34 31 37.68 31 37 C31.99 37 32.98 37 34 37 C33.505 31.555 33.505 31.555 33 26 C32.47599609 27.28197266 32.47599609 27.28197266 31.94140625 28.58984375 C31.48636719 29.69457031 31.03132813 30.79929687 30.5625 31.9375 C30.11003906 33.03964844 29.65757812 34.14179688 29.19140625 35.27734375 C28 38 28 38 27 39 C24.32941149 39.14115161 21.67567762 39.04247107 19 39 C18.37237545 37.77217138 17.74803935 36.54266164 17.125 35.3125 C16.77695313 34.62800781 16.42890625 33.94351563 16.0703125 33.23828125 C14.93967982 30.87385597 13.97335801 28.43339502 13 26 C12.67 29.63 12.34 33.26 12 37 C12.99 37 13.98 37 15 37 C15 37.66 15 38.32 15 39 C10.05 39 5.1 39 0 39 C0 38.34 0 37.68 0 37 C1.32 37 2.64 37 4 37 C4 25.78 4 14.56 4 3 C2.68 3 1.36 3 0 3 C0 2.01 0 1.02 0 0 Z M101 8 C101 11.63 101 15.26 101 19 C104.3 19 107.6 19 111 19 C111 15.37 111 11.74 111 8 C107.7 8 104.4 8 101 8 Z M66 11 C64.2505382 17.40215071 64.2505382 17.40215071 64 24 C65.65 24 67.3 24 69 24 C68.88490339 22.58249437 68.75746342 21.16598831 68.625 19.75 C68.52058594 18.56664062 68.52058594 18.56664062 68.4140625 17.359375 C67.98492887 14.914123 67.21399362 13.15163097 66 11 Z " fill="#F74409" transform="translate(205,322)"/>
<path d="M0 0 C0.89267578 0.00322266 1.78535156 0.00644531 2.70507812 0.00976562 C4.09823242 0.02233398 4.09823242 0.02233398 5.51953125 0.03515625 C6.45990234 0.03966797 7.40027344 0.04417969 8.36914062 0.04882812 C10.69013133 0.0606098 13.01108932 0.07854511 15.33203125 0.09765625 C15.33203125 4.38765625 15.33203125 8.67765625 15.33203125 13.09765625 C14.67203125 13.09765625 14.01203125 13.09765625 13.33203125 13.09765625 C13.33203125 12.10765625 13.33203125 11.11765625 13.33203125 10.09765625 C8.05203125 9.76765625 2.77203125 9.43765625 -2.66796875 9.09765625 C-2.33796875 11.07765625 -2.00796875 13.05765625 -1.66796875 15.09765625 C-0.78753906 15.03964844 0.09289062 14.98164063 1 14.921875 C10.33017826 14.55943744 10.33017826 14.55943744 13.2734375 16.140625 C17.38082487 20.32157751 17.66542565 23.96005044 17.625 29.546875 C17.18322445 33.39326744 15.8562123 35.20227211 13.33203125 38.09765625 C10.77479896 39.3762724 8.96466023 39.21102234 6.10546875 39.1953125 C5.07421875 39.19208984 4.04296875 39.18886719 2.98046875 39.18554688 C1.36011719 39.17297852 1.36011719 39.17297852 -0.29296875 39.16015625 C-1.92492187 39.15338867 -1.92492187 39.15338867 -3.58984375 39.14648438 C-6.28257537 39.13467415 -8.97527884 39.1167383 -11.66796875 39.09765625 C-11.66796875 35.13765625 -11.66796875 31.17765625 -11.66796875 27.09765625 C-11.00796875 27.09765625 -10.34796875 27.09765625 -9.66796875 27.09765625 C-9.66796875 28.08765625 -9.66796875 29.07765625 -9.66796875 30.09765625 C-4.38796875 30.42765625 0.89203125 30.75765625 6.33203125 31.09765625 C6.33203125 28.78765625 6.33203125 26.47765625 6.33203125 24.09765625 C5.34203125 24.42765625 4.35203125 24.75765625 3.33203125 25.09765625 C-1.60125324 25.6077077 -5.42615675 25.85794931 -9.73046875 23.22265625 C-13.59174323 18.98771004 -13.05403283 14.78775475 -13.0234375 9.25 C-12.66796875 6.09765625 -12.66796875 6.09765625 -10.35546875 2.84765625 C-6.75827556 0.5052979 -4.19751746 -0.02673578 0 0 Z " fill="#F6440A" transform="translate(185.66796875,321.90234375)"/>
<path d="M0 0 C3.63 0 7.26 0 11 0 C10.36145015 5.52675903 9.06306646 10.62367351 7.4375 15.9375 C7.20353516 16.71673828 6.96957031 17.49597656 6.72851562 18.29882812 C6.15682579 20.20057187 5.57904309 22.10048226 5 24 C7.31 24 9.62 24 12 24 C12 17.73 12 11.46 12 5 C15.63 5 19.26 5 23 5 C23 11.27 23 17.54 23 24 C23.99 24 24.98 24 26 24 C26 26.31 26 28.62 26 31 C25.01 31 24.02 31 23 31 C23 32.98 23 34.96 23 37 C23.99 37 24.98 37 26 37 C26 37.66 26 38.32 26 39 C20.39 39 14.78 39 9 39 C9 38.34 9 37.68 9 37 C9.99 37 10.98 37 12 37 C12 35.35 12 33.7 12 32 C6.39 32 0.78 32 -5 32 C-5 27.05205427 -4.87482691 23.52103984 -3.90625 18.84765625 C-3.68066406 17.74228516 -3.45507812 16.63691406 -3.22265625 15.49804688 C-2.98417969 14.36431641 -2.74570313 13.23058594 -2.5 12.0625 C-2.26152344 10.90169922 -2.02304688 9.74089844 -1.77734375 8.54492188 C-1.19101194 5.69534928 -0.59633427 2.84749616 0 0 Z " fill="#F14510" transform="translate(144,322)"/>
<path d="M0 0 C10.56 0 21.12 0 32 0 C32 4.29 32 8.58 32 13 C31.34 13 30.68 13 30 13 C30 11.68 30 10.36 30 9 C27.36 9 24.72 9 22 9 C21.67 18.24 21.34 27.48 21 37 C22.32 37 23.64 37 25 37 C25 37.66 25 38.32 25 39 C19.06 39 13.12 39 7 39 C7 38.34 7 37.68 7 37 C8.32 37 9.64 37 11 37 C10.67 27.76 10.34 18.52 10 9 C7.36 9 4.72 9 2 9 C2 10.32 2 11.64 2 13 C1.34 13 0.68 13 0 13 C0 8.71 0 4.42 0 0 Z " fill="#F4450D" transform="translate(329,322)"/>
<path d="M0 0 C0.74886475 0.00523682 1.49772949 0.01047363 2.26928711 0.01586914 C3.36188843 0.01961548 3.36188843 0.01961548 4.4765625 0.0234375 C5.40718506 0.0325415 6.33780762 0.04164551 7.29663086 0.05102539 C11.72069336 0.08196289 11.72069336 0.08196289 16.23413086 0.11352539 C16.23413086 7.70352539 16.23413086 15.29352539 16.23413086 23.11352539 C13.28475586 23.13415039 10.33538086 23.15477539 7.29663086 23.17602539 C5.90069702 23.1896814 5.90069702 23.1896814 4.4765625 23.20361328 C3.38396118 23.20735962 3.38396118 23.20735962 2.26928711 23.21118164 C1.52042236 23.21641846 0.77155762 23.22165527 0 23.22705078 C-1.76586914 23.11352539 -1.76586914 23.11352539 -2.76586914 22.11352539 C-2.86486437 20.5639698 -2.89666438 19.00998866 -2.89868164 17.45727539 C-2.8999707 16.51754883 -2.90125977 15.57782227 -2.90258789 14.60961914 C-2.8987207 13.6209082 -2.89485352 12.63219727 -2.89086914 11.61352539 C-2.89473633 10.62481445 -2.89860352 9.63610352 -2.90258789 8.61743164 C-2.90129883 7.67770508 -2.90000977 6.73797852 -2.89868164 5.76977539 C-2.89755371 4.9015918 -2.89642578 4.0334082 -2.89526367 3.13891602 C-2.73133392 0.57295143 -2.57721061 0.16568546 0 0 Z " fill="#033154" transform="translate(241.765869140625,194.886474609375)"/>
<path d="M0 0 C3.63 0 7.26 0 11 0 C11.33 0.99 11.66 1.98 12 3 C12.66 3 13.32 3 14 3 C15.97553122 7.93882804 17.45371755 12.67317248 18.52734375 17.87890625 C19.14719421 20.6605492 20.03791419 23.31990382 21 26 C18.36 26.99 15.72 27.98 13 29 C13 27.02 13 25.04 13 23 C12.34 23 11.68 23 11 23 C11 22.34 11 21.68 11 21 C9.68 21 8.36 21 7 21 C7 26.28 7 31.56 7 37 C5.35 36.67 3.7 36.34 2 36 C2 24.45 2 12.9 2 1 C1.34 0.67 0.68 0.34 0 0 Z " fill="#FC4003" transform="translate(208,323)"/>
<path d="M0 0 C4.95 0 9.9 0 15 0 C15.33 1.32 15.66 2.64 16 4 C15.34 3.34 14.68 2.68 14 2 C11.03 2 8.06 2 5 2 C5.33 13.55 5.66 25.1 6 37 C7.32 37.33 8.64 37.66 10 38 C10 32.72 10 27.44 10 22 C11.98 22.33 13.96 22.66 16 23 C17 25 17 25 17 29 C18.98 28.34 20.96 27.68 23 27 C22.65775391 26.20335937 22.65775391 26.20335937 22.30859375 25.390625 C22.02113281 24.68421875 21.73367187 23.9778125 21.4375 23.25 C21.14746094 22.55390625 20.85742188 21.8578125 20.55859375 21.140625 C20 19 20 19 21 15 C21.99 17.64 22.98 20.28 24 23 C25.32 19.7 26.64 16.4 28 13 C29.04973814 17.19895255 28.72795155 19.79405774 28 24 C29.65 23.67 31.3 23.34 33 23 C32.3739007 26.62615842 31.38690533 29.84392368 30 33.25 C29.4740625 34.55710937 29.4740625 34.55710937 28.9375 35.890625 C28 38 28 38 27 39 C24.32941149 39.14115161 21.67567762 39.04247107 19 39 C18.37237545 37.77217138 17.74803935 36.54266164 17.125 35.3125 C16.77695313 34.62800781 16.42890625 33.94351563 16.0703125 33.23828125 C14.93967982 30.87385597 13.97335801 28.43339502 13 26 C12.67 29.63 12.34 33.26 12 37 C12.99 37 13.98 37 15 37 C15 37.66 15 38.32 15 39 C10.05 39 5.1 39 0 39 C0 38.34 0 37.68 0 37 C1.32 37 2.64 37 4 37 C4 25.78 4 14.56 4 3 C2.68 3 1.36 3 0 3 C0 2.01 0 1.02 0 0 Z " fill="#F4430D" transform="translate(205,322)"/>
<path d="M0 0 C4.875 2.75 4.875 2.75 6 5 C6.17721577 7.45487423 6.27736821 9.85561664 6.3125 12.3125 C6.34988281 13.62863281 6.38726562 14.94476563 6.42578125 16.30078125 C5.94219336 20.50222832 4.96928843 22.06376487 2 25 C1.34 25.33 0.68 25.66 0 26 C0.73325207 27.48754006 1.48726078 28.96486192 2.25 30.4375 C2.66765625 31.26121094 3.0853125 32.08492188 3.515625 32.93359375 C4.82577099 35.16844475 4.82577099 35.16844475 7.171875 35.78515625 C7.77515625 35.85605469 8.3784375 35.92695313 9 36 C9 36.66 9 37.32 9 38 C4.05 38 -0.9 38 -6 38 C-7.20442708 35.16796875 -8.40885417 32.3359375 -9.61328125 29.50390625 C-10.80278223 26.68979416 -10.80278223 26.68979416 -14 26 C-14 29.3 -14 32.6 -14 36 C-12.68 36 -11.36 36 -10 36 C-10 36.66 -10 37.32 -10 38 C-11.65 38 -13.3 38 -15 38 C-15.33 33.38 -15.66 28.76 -16 24 C-14 23 -14 23 -11.4375 22.5625 C-10.633125 22.376875 -9.82875 22.19125 -9 22 C-8.67 21.34 -8.34 20.68 -8 20 C-8.969375 20.020625 -9.93875 20.04125 -10.9375 20.0625 C-14 20 -14 20 -15 19 C-15.07244053 16.98035801 -15.08377188 14.95832876 -15.0625 12.9375 C-15.05347656 11.83277344 -15.04445313 10.72804688 -15.03515625 9.58984375 C-15.02355469 8.73519531 -15.01195312 7.88054687 -15 7 C-14.67 7 -14.34 7 -14 7 C-14 10.63 -14 14.26 -14 18 C-10.7 18 -7.4 18 -4 18 C-4 15.03 -4 12.06 -4 9 C-3.67 9 -3.34 9 -3 9 C-2.34 11.97 -1.68 14.94 -1 18 C0.32 17.34 1.64 16.68 3 16 C3.66 16 4.32 16 5 16 C4.93085921 9.25679509 4.93085921 9.25679509 1.9375 3.5 C1.298125 3.005 0.65875 2.51 0 2 C0 1.34 0 0.68 0 0 Z " fill="#F34711" transform="translate(320,323)"/>
<path d="M0 0 C2.64 0.33 5.28 0.66 8 1 C8.03738281 2.09699219 8.07476562 3.19398438 8.11328125 4.32421875 C8.17896653 5.77867857 8.24541299 7.23310416 8.3125 8.6875 C8.33505859 9.40873047 8.35761719 10.12996094 8.38085938 10.87304688 C8.60935395 15.42216612 9.34596963 18.16481939 12 22 C12 22.66 12 23.32 12 24 C11.01 24 10.02 24 9 24 C9 26.64 9 29.28 9 32 C6.59454362 33.20272819 5.05003047 33.10071472 2.375 33.0625 C1.14910156 33.04896484 1.14910156 33.04896484 -0.1015625 33.03515625 C-0.72804687 33.02355469 -1.35453125 33.01195312 -2 33 C-1.01 32.505 -1.01 32.505 0 32 C0 29.69 0 27.38 0 25 C-1.65 25 -3.3 25 -5 25 C-5 23.35 -5 21.7 -5 20 C-3.35 19.67 -1.7 19.34 0 19 C0 12.73 0 6.46 0 0 Z " fill="#FB4003" transform="translate(157,328)"/>
<path d="M0 0 C0.66 0 1.32 0 2 0 C2 0.99 2 1.98 2 3 C3.134375 2.95875 4.26875 2.9175 5.4375 2.875 C10.14383562 2.85816159 14.46316004 3.82378223 19 5 C19 3.68 19 2.36 19 1 C19.66 1 20.32 1 21 1 C21.66 2.32 22.32 3.64 23 5 C22.67 5.33 22.34 5.66 22 6 C22.66 6.33 23.32 6.66 24 7 C24 7.99 24 8.98 24 10 C20.93843346 11.77669223 18.75963785 12.24050818 15.234375 12.1953125 C14.34492188 12.18886719 13.45546875 12.18242187 12.5390625 12.17578125 C11.61867187 12.15902344 10.69828125 12.14226562 9.75 12.125 C8.81414062 12.11597656 7.87828125 12.10695313 6.9140625 12.09765625 C4.60926511 12.07413791 2.30459967 12.03826826 0 12 C0 8.04 0 4.08 0 0 Z " fill="#FA440B" transform="translate(174,349)"/>
<path d="M0 0 C2 2 2 2 2.22705078 4.24658203 C2.21134033 5.61339111 2.21134033 5.61339111 2.1953125 7.0078125 C2.18564453 8.48701172 2.18564453 8.48701172 2.17578125 9.99609375 C2.15902344 11.02863281 2.14226562 12.06117188 2.125 13.125 C2.11597656 14.16527344 2.10695313 15.20554687 2.09765625 16.27734375 C2.07403747 18.85179092 2.04110149 21.42578212 2 24 C-0.89234315 24.82638376 -2.88742431 25 -6 25 C-6 17.41 -6 9.82 -6 2 C-3 2 -3 2 -1 3 C-0.67 2.01 -0.34 1.02 0 0 Z " fill="#FC4002" transform="translate(347,332)"/>
<path d="M0 0 C0.7734375 -0.00773437 1.546875 -0.01546875 2.34375 -0.0234375 C4.99133388 0.46578996 5.8603862 1.27852787 7.5 3.375 C8.1875 5.5625 8.1875 5.5625 8.5 7.375 C6.5625 7 6.5625 7 4.5 6.375 C4.17 5.715 3.84 5.055 3.5 4.375 C1.19 4.375 -1.12 4.375 -3.5 4.375 C-3.5 5.035 -3.5 5.695 -3.5 6.375 C-2.80132812 6.56835938 -2.10265625 6.76171875 -1.3828125 6.9609375 C-0.01769531 7.35152344 -0.01769531 7.35152344 1.375 7.75 C2.27992188 8.00523437 3.18484375 8.26046875 4.1171875 8.5234375 C6.5 9.375 6.5 9.375 8.5 11.375 C8.9375 13.8125 8.9375 13.8125 8.5 16.375 C5.79669188 18.68076281 3.97022143 19.32701822 0.4375 19.6875 C-4.27753059 19.185901 -4.27753059 19.185901 -6.5 17.375 C-7.25 14.25 -7.25 14.25 -7.5 11.375 C-6.51 11.375 -5.52 11.375 -4.5 11.375 C-4.17 12.365 -3.84 13.355 -3.5 14.375 C-1.19 14.705 1.12 15.035 3.5 15.375 C4.16 14.385 4.82 13.395 5.5 12.375 C4.64535156 12.17003906 3.79070312 11.96507812 2.91015625 11.75390625 C1.80542969 11.48449219 0.70070312 11.21507812 -0.4375 10.9375 C-1.53964844 10.67066406 -2.64179688 10.40382813 -3.77734375 10.12890625 C-6.5 9.375 -6.5 9.375 -7.5 8.375 C-7.96171829 3.98867621 -7.96171829 3.98867621 -6.265625 1.734375 C-4.04020654 0.02099972 -2.78377657 -0.02783777 0 0 Z " fill="#143551" transform="translate(250.5,381.625)"/>
<path d="M0 0 C0.7734375 -0.00773437 1.546875 -0.01546875 2.34375 -0.0234375 C4.99133388 0.46578996 5.8603862 1.27852787 7.5 3.375 C8.1875 5.5625 8.1875 5.5625 8.5 7.375 C6.5625 7 6.5625 7 4.5 6.375 C4.17 5.715 3.84 5.055 3.5 4.375 C1.19 4.375 -1.12 4.375 -3.5 4.375 C-3.5 5.035 -3.5 5.695 -3.5 6.375 C-2.80132812 6.56835938 -2.10265625 6.76171875 -1.3828125 6.9609375 C-0.01769531 7.35152344 -0.01769531 7.35152344 1.375 7.75 C2.27992188 8.00523437 3.18484375 8.26046875 4.1171875 8.5234375 C6.5 9.375 6.5 9.375 8.5 11.375 C8.9375 13.8125 8.9375 13.8125 8.5 16.375 C5.79669188 18.68076281 3.97022143 19.32701822 0.4375 19.6875 C-4.27753059 19.185901 -4.27753059 19.185901 -6.5 17.375 C-7.25 14.25 -7.25 14.25 -7.5 11.375 C-6.51 11.375 -5.52 11.375 -4.5 11.375 C-4.17 12.365 -3.84 13.355 -3.5 14.375 C-1.19 14.705 1.12 15.035 3.5 15.375 C4.16 14.385 4.82 13.395 5.5 12.375 C4.64535156 12.17003906 3.79070312 11.96507812 2.91015625 11.75390625 C1.80542969 11.48449219 0.70070312 11.21507812 -0.4375 10.9375 C-1.53964844 10.67066406 -2.64179688 10.40382813 -3.77734375 10.12890625 C-6.5 9.375 -6.5 9.375 -7.5 8.375 C-7.96171829 3.98867621 -7.96171829 3.98867621 -6.265625 1.734375 C-4.04020654 0.02099972 -2.78377657 -0.02783777 0 0 Z " fill="#113450" transform="translate(164.5,381.625)"/>
<path d="M0 0 C3.63 0 7.26 0 11 0 C10.40840281 4.83137707 9.56944575 9.38398308 8 14 C7.01 14.495 7.01 14.495 6 15 C5.01 16.485 5.01 16.485 4 18 C3.34 18 2.68 18 2 18 C1.01 18.33 0.02 18.66 -1 19 C-1.02705308 16.58325776 -1.04686438 14.1668206 -1.0625 11.75 C-1.07087891 11.06808594 -1.07925781 10.38617188 -1.08789062 9.68359375 C-1.10481414 6.1973503 -0.8533497 3.41339881 0 0 Z " fill="#FD4002" transform="translate(144,322)"/>
<path d="M0 0 C0.70125 -0.185625 1.4025 -0.37125 2.125 -0.5625 C4 -1 4 -1 6.1875 -0.3125 C8 1 8 1 8.75 2.625 C9.1155134 6.09737727 9.05818928 9.50864298 9 13 C8.01 13 7.02 13 6 13 C5.34 9.7 4.68 6.4 4 3 C3.01 3.33 2.02 3.66 1 4 C0.67 6.97 0.34 9.94 0 13 C-0.99 13 -1.98 13 -3 13 C-3.66 9.7 -4.32 6.4 -5 3 C-5.99 3.33 -6.98 3.66 -8 4 C-8.33 6.97 -8.66 9.94 -9 13 C-10.32 13 -11.64 13 -13 13 C-13 8.71 -13 4.42 -13 0 C-8.2933849 -0.84719072 -4.67876491 -0.83178043 0 0 Z " fill="#11344E" transform="translate(188,387)"/>
<path d="M0 0 C4.95 0 9.9 0 15 0 C15.33 1.32 15.66 2.64 16 4 C15.34 3.34 14.68 2.68 14 2 C11.03 2 8.06 2 5 2 C5.33 13.55 5.66 25.1 6 37 C7.32 37.33 8.64 37.66 10 38 C10 32.72 10 27.44 10 22 C11.98 22.33 13.96 22.66 16 23 C17 25 17 25 17 29 C17.99 29 18.98 29 20 29 C19.814375 29.9075 19.62875 30.815 19.4375 31.75 C19.04265379 34.68314324 19.05308428 36.2644657 20 39 C15.94764571 35.50498957 14.849194 30.90992891 13 26 C12.67 29.63 12.34 33.26 12 37 C12.99 37 13.98 37 15 37 C15 37.66 15 38.32 15 39 C10.05 39 5.1 39 0 39 C0 38.34 0 37.68 0 37 C1.32 37 2.64 37 4 37 C4 25.78 4 14.56 4 3 C2.68 3 1.36 3 0 3 C0 2.01 0 1.02 0 0 Z " fill="#DF4D20" transform="translate(205,322)"/>
<path d="M0 0 C0.66 0 1.32 0 2 0 C2 1.32 2 2.64 2 4 C3.32 4 4.64 4 6 4 C6 4.99 6 5.98 6 7 C4.68 7 3.36 7 2 7 C2.33 9.31 2.66 11.62 3 14 C3.99 14.33 4.98 14.66 6 15 C6 15.99 6 16.98 6 18 C0.125 17.125 0.125 17.125 -1 16 C-1.07179964 14.48071962 -1.08392007 12.95832518 -1.0625 11.4375 C-1.05347656 10.61121094 -1.04445312 9.78492188 -1.03515625 8.93359375 C-1.02355469 8.29550781 -1.01195312 7.65742188 -1 7 C-3.31 7.33 -5.62 7.66 -8 8 C-8.66 10.97 -9.32 13.94 -10 17 C-10.99 17 -11.98 17 -13 17 C-13 12.71 -13 8.42 -13 4 C-8.6835078 3.23826608 -5.25566547 2.83936396 -1 4 C-0.67 2.68 -0.34 1.36 0 0 Z " fill="#103752" transform="translate(227,383)"/>
<path d="M0 0 C2.33745996 3.8957666 2.17472445 7.5445266 2 12 C0.20991533 12.22151549 -1.58218162 12.42682213 -3.375 12.625 C-4.37273437 12.74101562 -5.37046875 12.85703125 -6.3984375 12.9765625 C-7.25695312 12.98429687 -8.11546875 12.99203125 -9 13 C-11 11 -11 11 -11.125 8.5 C-11.08375 7.675 -11.0425 6.85 -11 6 C-11 5.34 -11 4.68 -11 4 C-10.8125 2 -10.8125 2 -10 0 C-6.1696939 -2.34074262 -3.81334441 -2.37045733 0 0 Z M-6 1 C-6.99 2.485 -6.99 2.485 -8 4 C-6.02 3.67 -4.04 3.34 -2 3 C-3.32 2.34 -4.64 1.68 -6 1 Z M-8 7 C-8 7.99 -8 8.98 -8 10 C-6.35 9.67 -4.7 9.34 -3 9 C-2.67 8.01 -2.34 7.02 -2 6 C-5.7763932 5.7018576 -5.7763932 5.7018576 -8 7 Z " fill="#113853" transform="translate(210,388)"/>
<path d="M0 0 C0.33 0 0.66 0 1 0 C1.33 8.58 1.66 17.16 2 26 C2.99 25.67 3.98 25.34 5 25 C5 25.66 5 26.32 5 27 C5.99 26.67 6.98 26.34 8 26 C8.33 17.42 8.66 8.84 9 0 C9.33 0 9.66 0 10 0 C10 9.57 10 19.14 10 29 C11.32 29 12.64 29 14 29 C14 29.66 14 30.32 14 31 C8.06 31 2.12 31 -4 31 C-4 30.34 -4 29.68 -4 29 C-2.68 29 -1.36 29 0 29 C0 19.43 0 9.86 0 0 Z " fill="#EC4F1B" transform="translate(340,330)"/>
<path d="M0 0 C0.66 2.64 1.32 5.28 2 8 C1.01 8.495 1.01 8.495 0 9 C-1.13350534 11.01669827 -1.13350534 11.01669827 -2 13 C-2.763125 12.835 -3.52625 12.67 -4.3125 12.5 C-7.03596236 11.90854604 -7.03596236 11.90854604 -10 12 C-9.38125 11.278125 -8.7625 10.55625 -8.125 9.8125 C-6.16333647 7.21618062 -5.04684 5.05328334 -4 2 C-5.051875 2.495 -6.10375 2.99 -7.1875 3.5 C-13.60333181 5.91739377 -21.40985549 6.26454483 -27.89453125 3.98046875 C-28.58933594 3.65691406 -29.28414063 3.33335937 -30 3 C-25.07787125 1.39251998 -19.93037592 2.03108251 -14.82421875 2.16015625 C-9.64347644 1.94318951 -5.1787171 0 0 0 Z " fill="#ED4813" transform="translate(327,218)"/>
<path d="M0 0 C3.63 0 7.26 0 11 0 C11 6.27 11 12.54 11 19 C11.99 19 12.98 19 14 19 C14 21.31 14 23.62 14 26 C13.01 26 12.02 26 11 26 C11 27.98 11 29.96 11 32 C11.99 32 12.98 32 14 32 C14 32.66 14 33.32 14 34 C12.02 34 10.04 34 8 34 C8.99 33.505 8.99 33.505 10 33 C10 30.36 10 27.72 10 25 C10.99 25 11.98 25 13 25 C12.34 24.175 11.68 23.35 11 22.5 C7.44581522 16.4804124 8.70919415 8.72892433 9 2 C8.05125 2.020625 7.1025 2.04125 6.125 2.0625 C3 2 3 2 1 1 C1 7.27 1 13.54 1 20 C-1.31 20 -3.62 20 -6 20 C-6 19.67 -6 19.34 -6 19 C-4.02 19 -2.04 19 0 19 C0 12.73 0 6.46 0 0 Z " fill="#E04E21" transform="translate(156,327)"/>
<path d="M0 0 C1.50934217 3.01868434 1.17510672 5.67297229 1 9 C-1 12 -1 12 -3.8125 12.875 C-7.65974597 13.02587239 -9.12425742 12.54708628 -12 10 C-13.25276086 6.39831252 -13.29995148 4.7104114 -11.8125 1.1875 C-10 -1 -10 -1 -8.1875 -1.9375 C-5.11519328 -2.02528019 -2.8126839 -1.18757765 0 0 Z M-7 1 C-9.16940921 1.79895413 -9.16940921 1.79895413 -9.6875 3.875 C-10.18988397 6.18183235 -10.18988397 6.18183235 -9 9 C-6.60280568 9.67958603 -6.60280568 9.67958603 -4 10 C-1.71271266 8.16116119 -1.71271266 8.16116119 -1.875 5.375 C-1.91625 4.59125 -1.9575 3.8075 -2 3 C-4.39068734 1.89363605 -4.39068734 1.89363605 -7 1 Z " fill="#133651" transform="translate(273,388)"/>
<path d="M0 0 C0.66 0.33 1.32 0.66 2 1 C1.34 2.32 0.68 3.64 0 5 C-0.66 5 -1.32 5 -2 5 C-3.7265591 6.62928817 -5.3634517 8.28405043 -7 10 C-8.04942321 11.05473675 -9.10161617 12.10672336 -10.15625 13.15625 C-10.70410156 13.70410156 -11.25195312 14.25195312 -11.81640625 14.81640625 C-23.54427083 26.54427083 -35.27213542 38.27213542 -47 50 C-47.66 49.67 -48.32 49.34 -49 49 C-32.83 32.83 -16.66 16.66 0 0 Z " fill="#15364F" transform="translate(219,124)"/>
<path d="M0 0 C2.33043558 3.49565336 2.58763244 4.8865729 2 9 C-0.125 11.4375 -0.125 11.4375 -3 13 C-6.50732933 13 -8.2434698 12.6345092 -10.9375 10.375 C-12.46862051 6.95249533 -11.8626304 4.58323398 -11 1 C-7.31567519 -2.68432481 -4.49993725 -2.36838802 0 0 Z M-6 1 C-7.66621425 2.1645201 -7.66621425 2.1645201 -9 4 C-8.76956136 6.65466049 -8.76956136 6.65466049 -8 9 C-5.60280568 9.67958603 -5.60280568 9.67958603 -3 10 C-0.71271266 8.16116119 -0.71271266 8.16116119 -0.875 5.375 C-0.91625 4.59125 -0.9575 3.8075 -1 3 C-3.475 2.01 -3.475 2.01 -6 1 Z " fill="#143551" transform="translate(326,388)"/>
<path d="M0 0 C0.99 0 1.98 0 3 0 C3.33 2.97 3.66 5.94 4 9 C5.32 9.33 6.64 9.66 8 10 C8.66 6.7 9.32 3.4 10 0 C10.99 0 11.98 0 13 0 C13 4.29 13 8.58 13 13 C4.85416667 14.4375 4.85416667 14.4375 1.4375 12.6875 C-0.76326599 8.57302445 -0.31397078 4.57001909 0 0 Z " fill="#173750" transform="translate(282,387)"/>
<path d="M0 0 C2.375 1.25 2.375 1.25 3.375 4.25 C3.44240865 5.81118428 3.46014456 7.3750252 3.4375 8.9375 C3.42847656 9.74574219 3.41945313 10.55398438 3.41015625 11.38671875 C3.39855469 12.00160156 3.38695312 12.61648438 3.375 13.25 C2.385 13.25 1.395 13.25 0.375 13.25 C-0.285 9.95 -0.945 6.65 -1.625 3.25 C-2.945 3.25 -4.265 3.25 -5.625 3.25 C-5.955 6.55 -6.285 9.85 -6.625 13.25 C-7.615 13.25 -8.605 13.25 -9.625 13.25 C-9.625 8.96 -9.625 4.67 -9.625 0.25 C-8.305 0.25 -6.985 0.25 -5.625 0.25 C-2.625 -0.75 -2.625 -0.75 0 0 Z " fill="#0F3453" transform="translate(339.625,386.75)"/>
<path d="M0 0 C0.66 0 1.32 0 2 0 C2 1.32 2 2.64 2 4 C3.65 4 5.3 4 7 4 C6.67 4.99 6.34 5.98 6 7 C4.68 7 3.36 7 2 7 C2.33 9.31 2.66 11.62 3 14 C4.32 14.33 5.64 14.66 7 15 C6.67 15.99 6.34 16.98 6 18 C3.0625 17.625 3.0625 17.625 0 17 C-1.60725635 13.78548731 -1.05748185 10.56387464 -1 7 C-1.99 6.67 -2.98 6.34 -4 6 C-4 5.34 -4 4.68 -4 4 C-3.01 4 -2.02 4 -1 4 C-0.67 2.68 -0.34 1.36 0 0 Z " fill="#133A51" transform="translate(300,383)"/>
<path d="M0 0 C0.33 0 0.66 0 1 0 C2.21773545 5.21456296 3.25375277 9.90825063 0.39501953 14.67773438 C-1.9311622 17.20873394 -4.34983199 19.48747392 -6.9375 21.75 C-7.80052734 22.554375 -8.66355469 23.35875 -9.55273438 24.1875 C-11.67543831 26.15774453 -13.82200879 28.09134913 -16 30 C-16.66 28.68 -17.32 27.36 -18 26 C-17.195625 25.38125 -16.39125 24.7625 -15.5625 24.125 C-12.96125481 22.25835959 -12.96125481 22.25835959 -12 20 C-11.01 20 -10.02 20 -9 20 C-8.7525 19.38125 -8.505 18.7625 -8.25 18.125 C-6.77753937 15.62181694 -5.58971163 15.16954719 -3 14 C-2.67 13.34 -2.34 12.68 -2 12 C-1.34 12 -0.68 12 0 12 C0 8.04 0 4.08 0 0 Z " fill="#0C304C" transform="translate(218,134)"/>
<path d="M0 0 C1.9375 0.75 1.9375 0.75 4 2 C4.62890625 4.078125 4.62890625 4.078125 5 6 C4.52691406 6.40597412 4.05382812 6.81194824 3.56640625 7.23022461 C-1.77608311 11.85478442 -6.94063586 16.63027759 -12 21.5625 C-13.16208984 22.65594727 -13.16208984 22.65594727 -14.34765625 23.77148438 C-18.76223311 27.91881617 -18.76223311 27.91881617 -20.5 33.52734375 C-20.335 34.34332031 -20.17 35.15929687 -20 36 C-21.32 35.01 -22.64 34.02 -24 33 C-22.39626852 28.99482604 -19.57886014 26.3228902 -16.5546875 23.359375 C-15.75987473 22.56880707 -15.75987473 22.56880707 -14.94900513 21.76226807 C-13.26232175 20.08674325 -11.56880436 18.41832278 -9.875 16.75 C-8.72740612 15.61244149 -7.58026539 14.47442564 -6.43359375 13.3359375 C-3.62761863 10.55196535 -0.81549536 7.7743424 2 5 C1.34 3.35 0.68 1.7 0 0 Z " fill="#DC5427" transform="translate(276,202)"/>
<path d="M0 0 C2.45352191 1.09735579 2.90320437 2.37819984 3.8515625 4.828125 C-0.8984375 5.828125 -0.8984375 5.828125 -3.1484375 5.828125 C-2.8184375 6.818125 -2.4884375 7.808125 -2.1484375 8.828125 C-3.1384375 9.323125 -3.1384375 9.323125 -4.1484375 9.828125 C-4.1484375 9.168125 -4.1484375 8.508125 -4.1484375 7.828125 C-6.396235 9.88046185 -7.1506617 10.83479761 -8.1484375 13.828125 C-9.1384375 12.838125 -10.1284375 11.848125 -11.1484375 10.828125 C-9.7579876 7.72370469 -8.13272152 5.4624807 -5.7734375 3.015625 C-5.18820312 2.39042969 -4.60296875 1.76523438 -4 1.12109375 C-2.1484375 -0.171875 -2.1484375 -0.171875 0 0 Z " fill="#E54715" transform="translate(263.1484375,168.171875)"/>
<path d="M0 0 C2.1185132 3.48931586 2.1185132 3.48931586 1.5703125 5.8515625 C1.38210938 6.56054688 1.19390625 7.26953125 1 8 C0.88708495 9.53879581 0.82540033 11.08212089 0.8125 12.625 C0.79832031 13.40101563 0.78414063 14.17703125 0.76953125 14.9765625 C0.81334164 17.22836993 0.81334164 17.22836993 3 19 C2.34 19.99 1.68 20.98 1 22 C0.34 22 -0.32 22 -1 22 C-1 22.66 -1 23.32 -1 24 C-1.99 24.33 -2.98 24.66 -4 25 C-3.83242188 24.35289062 -3.66484375 23.70578125 -3.4921875 23.0390625 C-2.73849668 18.38532075 -3.03225377 13.76220732 -3.21484375 9.0625 C-3.32346245 3.43407655 -3.32346245 3.43407655 -1.4921875 0.9765625 C-0.99976563 0.65429688 -0.50734375 0.33203125 0 0 Z " fill="#EF440F" transform="translate(283,264)"/>
<path d="M0 0 C4.95 0 9.9 0 15 0 C15.33 1.32 15.66 2.64 16 4 C15.34 3.34 14.68 2.68 14 2 C11.03 2 8.06 2 5 2 C5 13.88 5 25.76 5 38 C2.525 38.495 2.525 38.495 0 39 C0 38.34 0 37.68 0 37 C1.32 37 2.64 37 4 37 C4 25.78 4 14.56 4 3 C2.68 3 1.36 3 0 3 C0 2.01 0 1.02 0 0 Z " fill="#F65725" transform="translate(205,322)"/>
<path d="M0 0 C2.31 0 4.62 0 7 0 C7.33 0.66 7.66 1.32 8 2 C7.01 2.66 6.02 3.32 5 4 C4.42006301 6.19454681 4.42006301 6.19454681 4.3125 8.625 C4.24675781 9.44226563 4.18101562 10.25953125 4.11328125 11.1015625 C4.07589844 11.72804688 4.03851563 12.35453125 4 13 C2.68 13 1.36 13 0 13 C0 8.71 0 4.42 0 0 Z " fill="#0F3D54" transform="translate(175,387)"/>
<path d="M0 0 C5.99500997 4.96194855 11.46427037 10.3476624 16.9375 15.875 C17.81212891 16.75414062 18.68675781 17.63328125 19.58789062 18.5390625 C21.72757048 20.6904346 23.86486597 22.84411792 26 25 C25.01 25 24.02 25 23 25 C22.34 24.34 21.68 23.68 21 23 C18.42938689 22.35232207 18.42938689 22.35232207 16 22 C15.95746094 21.30519531 15.91492188 20.61039063 15.87109375 19.89453125 C14.63213652 15.77763751 12.11929386 13.6093831 9.0625 10.6875 C8.51142578 10.13771484 7.96035156 9.58792969 7.39257812 9.02148438 C4.68660599 5.99339491 4.68660599 5.99339491 1 5 C0.67 3.35 0.34 1.7 0 0 Z " fill="#DE4F1E" transform="translate(291,135)"/>
<path d="M0 0 C3.21043882 1.38188453 5.04936365 2.92421903 7.25 5.625 C8.03117187 6.57246094 8.03117187 6.57246094 8.828125 7.5390625 C9.40820312 8.26222656 9.40820312 8.26222656 10 9 C7.50638429 7.79618552 5.31856917 6.54571278 3 5 C3.00604143 7.71260034 3.05365708 10.41396891 3.125 13.125 C3.12242187 13.88554687 3.11984375 14.64609375 3.1171875 15.4296875 C3.27156726 19.90670049 3.82788438 22.32788438 7.0546875 25.5546875 C8.02664063 26.36164063 8.99859375 27.16859375 10 28 C9.67 28.66 9.34 29.32 9 30 C5.52199193 27.77966449 3.13274742 25.55301657 1 22 C0.0798616 16.72189788 0.5492758 11.29229923 0.98657227 5.97949219 C1.00115569 3.82963084 0.60203124 2.05638929 0 0 Z " fill="#D2512C" transform="translate(279,124)"/>
<path d="M0 0 C5.66129431 4.69766975 10.85228904 9.74723372 16 15 C13 15 13 15 10.5 12.5625 C9.675 11.716875 8.85 10.87125 8 10 C7.01 9.67 6.02 9.34 5 9 C4.67 8.34 4.34 7.68 4 7 C2.35 7.66 0.7 8.32 -1 9 C-1.66 8.34 -2.32 7.68 -3 7 C-2.01 4.69 -1.02 2.38 0 0 Z " fill="#0F3450" transform="translate(236,222)"/>
<path d="M0 0 C2.97 0 5.94 0 9 0 C8.01 0.495 8.01 0.495 7 1 C6.27113266 3.7696959 6 6.12862585 6 9 C4.34385343 9.38218767 2.67542976 9.71395102 1 10 C0 9 0 9 -0.09765625 6.93359375 C-0.06510417 4.62239583 -0.03255208 2.31119792 0 0 Z " fill="#FA4103" transform="translate(265,323)"/>
<path d="M0 0 C0.99 0 1.98 0 3 0 C3 5.94 3 11.88 3 18 C2.01 18 1.02 18 0 18 C0 12.06 0 6.12 0 0 Z " fill="#123552" transform="translate(277,382)"/>
<path d="M0 0 C0.33 0 0.66 0 1 0 C1.41048204 7.3886768 0.69619682 14.76456381 -4.1875 20.625 C-5.0846875 21.305625 -5.0846875 21.305625 -6 22 C-6.33 20.35 -6.66 18.7 -7 17 C-6.34 16.67 -5.68 16.34 -5 16 C-4.34444881 13.47266765 -4.34444881 13.47266765 -4 11 C-3.34 11 -2.68 11 -2 11 C-1.93941406 10.37351563 -1.87882812 9.74703125 -1.81640625 9.1015625 C-1.73261719 8.28429687 -1.64882813 7.46703125 -1.5625 6.625 C-1.48128906 5.81289062 -1.40007812 5.00078125 -1.31640625 4.1640625 C-1 2 -1 2 0 0 Z " fill="#ED4A17" transform="translate(337,215)"/>
<path d="M0 0 C1.70840281 1.63412443 2.93453047 2.86906094 4 5 C6.02463255 5.65213292 6.02463255 5.65213292 8 6 C8 6.66 8 7.32 8 8 C3.05 8 -1.9 8 -7 8 C-7.33 6.68 -7.66 5.36 -8 4 C-5.69 4.66 -3.38 5.32 -1 6 C-0.67 4.02 -0.34 2.04 0 0 Z " fill="#E94C19" transform="translate(321,353)"/>
<path d="M0 0 C-0.33 0.99 -0.66 1.98 -1 3 C-2.32 3 -3.64 3 -5 3 C-5.33 3.66 -5.66 4.32 -6 5 C-7 6 -7 6 -9.5625 6.0625 C-10.7690625 6.0315625 -10.7690625 6.0315625 -12 6 C-12 3 -12 3 -11 0 C-6.98195309 -0.84098656 -3.98196457 -1.05404945 0 0 Z " fill="#FC3F02" transform="translate(196,339)"/>
<path d="M0 0 C1.32 0 2.64 0 4 0 C3.50769231 7.50769231 3.50769231 7.50769231 0.9375 10 C-0.0215625 10.495 -0.0215625 10.495 -1 11 C-1.66 10.67 -2.32 10.34 -3 10 C-2.69201674 8.51988629 -2.378482 7.04092675 -2.0625 5.5625 C-1.88847656 4.73878906 -1.71445312 3.91507812 -1.53515625 3.06640625 C-1 1 -1 1 0 0 Z " fill="#FB3E03" transform="translate(264,337)"/>
<path d="M0 0 C7.59 0 15.18 0 23 0 C19.57585194 3.42414806 16.25292145 3.16102448 11.625 3.1875 C10.50351563 3.20167969 9.38203125 3.21585938 8.2265625 3.23046875 C5.05115158 3.00365368 2.85765282 2.35390668 0 1 C0 0.67 0 0.34 0 0 Z " fill="#0C304C" transform="translate(180,220)"/>
<path d="M0 0 C0.77988281 -0.01417969 1.55976563 -0.02835938 2.36328125 -0.04296875 C4.8907668 0.20765587 6.50468031 0.92376228 8.6875 2.1875 C8.6875 3.1775 8.6875 4.1675 8.6875 5.1875 C5.72400719 6.17533094 3.7162337 6.32160525 0.625 6.3125 C-0.69177734 6.31636719 -0.69177734 6.31636719 -2.03515625 6.3203125 C-4.3125 6.1875 -4.3125 6.1875 -6.3125 5.1875 C-5.26554448 0.55098268 -4.78296716 0.03914048 0 0 Z M-5.3125 2.1875 C-5.3125 2.8475 -5.3125 3.5075 -5.3125 4.1875 C-2.29381566 5.69684217 0.36047229 5.36260672 3.6875 5.1875 C4.6775 4.5275 5.6675 3.8675 6.6875 3.1875 C2.27524263 1.71674754 -0.79531619 0.81865642 -5.3125 2.1875 Z " fill="#E44C1E" transform="translate(308.3125,202.8125)"/>
<path d="M0 0 C3.63 0 7.26 0 11 0 C10.45144652 4.571279 9.58255197 8.67435795 8 13 C7.67 13 7.34 13 7 13 C7 10.69 7 8.38 7 6 C7.66 6 8.32 6 9 6 C9 4.68 9 3.36 9 2 C6.36 1.67 3.72 1.34 1 1 C1 3.31 1 5.62 1 8 C0.34 8 -0.32 8 -1 8 C-0.67 5.36 -0.34 2.72 0 0 Z " fill="#E2491A" transform="translate(144,322)"/>
<path d="M0 0 C0 0.66 0 1.32 0 2 C-0.58499268 2.09531006 -1.16998535 2.19062012 -1.77270508 2.28881836 C-4.49028015 3.15654785 -5.66355986 4.33328448 -7.63671875 6.37890625 C-8.62575195 7.38920898 -8.62575195 7.38920898 -9.63476562 8.41992188 C-10.31216797 9.12697266 -10.98957031 9.83402344 -11.6875 10.5625 C-13.04350961 11.96163807 -14.40147346 13.35888576 -15.76171875 14.75390625 C-16.658302 15.68698608 -16.658302 15.68698608 -17.57299805 16.63891602 C-19 18 -19 18 -20 18 C-20 16.35 -20 14.7 -20 13 C-19.28972656 12.78601563 -18.57945312 12.57203125 -17.84765625 12.3515625 C-13.70395444 10.38486726 -11.0509837 7.15049788 -8.01757812 3.8125 C-4.41184069 0 -4.41184069 0 0 0 Z " fill="#DF5126" transform="translate(293,216)"/>
<path d="M0 0 C0.33 0 0.66 0 1 0 C1.38082175 4.76027183 1.42155329 8.12566725 -0.6875 12.5 C-3.2005214 15.21677989 -4.36464239 15.79803569 -8 16 C-7.67 15.34 -7.34 14.68 -7 14 C-6.01 14 -5.02 14 -4 14 C-4 13.01 -4 12.02 -4 11 C-4.99 10.67 -5.98 10.34 -7 10 C-2.125 7 -2.125 7 -1 7 C-0.67 4.69 -0.34 2.38 0 0 Z " fill="#E64E1F" transform="translate(202,345)"/>
<path d="M0 0 C6.6 0 13.2 0 20 0 C19.67 0.99 19.34 1.98 19 3 C15.625 3.625 15.625 3.625 12 4 C11.34 3.34 10.68 2.68 10 2 C7.56747339 1.53837573 7.56747339 1.53837573 4.875 1.375 C3.96492187 1.30023438 3.05484375 1.22546875 2.1171875 1.1484375 C1.41851562 1.09945313 0.71984375 1.05046875 0 1 C0 0.67 0 0.34 0 0 Z " fill="#E64913" transform="translate(181,322)"/>
<path d="M0 0 C1.9375 0.875 1.9375 0.875 4 2 C4.99 2.33 5.98 2.66 7 3 C6.67 5.31 6.34 7.62 6 10 C4.68 10.33 3.36 10.66 2 11 C2 10.34 2 9.68 2 9 C2.99 9 3.98 9 5 9 C4.67 7.68 4.34 6.36 4 5 C0.7 4.67 -2.6 4.34 -6 4 C-2 1 -2 1 0 0 Z " fill="#EE4819" transform="translate(272,350)"/>
<path d="M0 0 C0.99 0 1.98 0 3 0 C3 4.29 3 8.58 3 13 C2.01 13 1.02 13 0 13 C0 8.71 0 4.42 0 0 Z " fill="#183A54" transform="translate(309,387)"/>
<path d="M0 0 C3.2605096 3.2605096 3.05467405 6.89083745 3.0625 11.3125 C3.041875 12.529375 3.02125 13.74625 3 15 C2.67 15 2.34 15 2 15 C2 13.35 2 11.7 2 10 C0.68 10 -0.64 10 -2 10 C-2 8.02 -2 6.04 -2 4 C-1.34 4 -0.68 4 0 4 C0 2.68 0 1.36 0 0 Z " fill="#1A3252" transform="translate(276,266)"/>
<path d="M0 0 C1.13199353 0.9080162 2.25532363 1.82683826 3.375 2.75 C4.00148437 3.26046875 4.62796875 3.7709375 5.2734375 4.296875 C7.08312318 6.08199481 8.00117455 7.67949644 9 10 C7.68 10.99 6.36 11.98 5 13 C4.34 12.67 3.68 12.34 3 12 C2.7429249 10.03980233 2.49170042 8.07690812 2.34375 6.10546875 C1.96148026 3.76406658 1.14933735 2.06231904 0 0 Z " fill="#092F4C" transform="translate(239,250)"/>
<path d="M0 0 C0.99 0.33 1.98 0.66 3 1 C-0.63 4.63 -4.26 8.26 -8 12 C-9 8 -9 8 -8 6 C-6.68 6 -5.36 6 -4 6 C-3.8453125 5.071875 -3.8453125 5.071875 -3.6875 4.125 C-3 2 -3 2 0 0 Z " fill="#0C304B" transform="translate(190,172)"/>
<path d="M0 0 C0.66 0 1.32 0 2 0 C2 5.28 2 10.56 2 16 C0.35 16 -1.3 16 -3 16 C-3 15.34 -3 14.68 -3 14 C-2.01 14 -1.02 14 0 14 C0 9.38 0 4.76 0 0 Z " fill="#DF5129" transform="translate(239,345)"/>
<path d="M0 0 C0.66 0.33 1.32 0.66 2 1 C0.625 2.5 0.625 2.5 -1 4 C-1.66 4 -2.32 4 -3 4 C-3.08160748 5.89510699 -3.13946459 7.79124504 -3.1875 9.6875 C-3.22230469 10.74324219 -3.25710937 11.79898437 -3.29296875 12.88671875 C-2.9638655 16.38398933 -1.98409076 18.14630775 0 21 C0.33 21.66 0.66 22.32 1 23 C-2.16115776 21.63016497 -2.9927092 21.0109362 -5 18 C-6.33585974 7.34124546 -6.33585974 7.34124546 -3.87890625 3.03515625 C-2.5 1.6875 -2.5 1.6875 0 0 Z " fill="#E6501E" transform="translate(178,323)"/>
<path d="M0 0 C0.74886475 0.00523682 1.49772949 0.01047363 2.26928711 0.01586914 C3.07817383 0.0190918 3.88706055 0.02231445 4.72045898 0.02563477 C5.5705957 0.03401367 6.42073242 0.04239258 7.29663086 0.05102539 C8.15063477 0.05553711 9.00463867 0.06004883 9.88452148 0.06469727 C12.00108749 0.07652166 14.11761771 0.0944577 16.23413086 0.11352539 C15.90413086 1.43352539 15.57413086 2.75352539 15.23413086 4.11352539 C15.23413086 3.12352539 15.23413086 2.13352539 15.23413086 1.11352539 C7.31413086 1.60852539 7.31413086 1.60852539 -0.76586914 2.11352539 C-1.09586914 5.08352539 -1.42586914 8.05352539 -1.76586914 11.11352539 C-2.09586914 11.11352539 -2.42586914 11.11352539 -2.76586914 11.11352539 C-2.79275065 9.46777973 -2.81221037 7.82191126 -2.82836914 6.17602539 C-2.8399707 5.25950195 -2.85157227 4.34297852 -2.86352539 3.39868164 C-2.72577131 0.17523623 -2.72577131 0.17523623 0 0 Z " fill="#0F2F4A" transform="translate(241.765869140625,194.886474609375)"/>
<path d="M0 0 C1.98 0.99 1.98 0.99 4 2 C4 3.65 4 5.3 4 7 C4.99 7 5.98 7 7 7 C6.814375 7.9075 6.62875 8.815 6.4375 9.75 C6.04265379 12.68314324 6.05308428 14.2644657 7 17 C4.30166927 14.64185996 3.11535036 12.38202294 1.8125 9.0625 C1.46832031 8.20785156 1.12414062 7.35320312 0.76953125 6.47265625 C0 4 0 4 0 0 Z " fill="#EC4D19" transform="translate(218,344)"/>
<path d="M0 0 C4.52615993 3.67832017 8.39424999 7.41086363 12 12 C11.0925 11.690625 10.185 11.38125 9.25 11.0625 C6.83436662 10.2727737 4.47219715 9.57050703 2 9 C2.33 8.01 2.66 7.02 3 6 C2.04701223 4.63266972 1.04625409 3.29735507 0 2 C0 1.34 0 0.68 0 0 Z " fill="#123855" transform="translate(259,245)"/>
<path d="M0 0 C-0.66498383 4.38889325 -2.18757677 7.9811485 -4 12 C-4.3449145 10.66961551 -4.67516582 9.33542939 -5 8 C-5.2475 7.154375 -5.495 6.30875 -5.75 5.4375 C-6 3 -6 3 -4.75 1.1875 C-3 0 -3 0 0 0 Z " fill="#EF4D13" transform="translate(238,345)"/>
<path d="M0 0 C0.33 0 0.66 0 1 0 C1.12375 0.78375 1.2475 1.5675 1.375 2.375 C1.79117993 5.14057822 1.79117993 5.14057822 4 7 C3.34 7 2.68 7 2 7 C2.33 7.99 2.66 8.98 3 10 C2.01 10.33 1.02 10.66 0 11 C-1.22520264 14.00847418 -1.22520264 14.00847418 -2 17 C-3.44715727 13.12813552 -2.5441918 10.1767672 -1.5625 6.25 C-1.27503906 5.07953125 -0.98757813 3.9090625 -0.69140625 2.703125 C-0.46324219 1.81109375 -0.23507812 0.9190625 0 0 Z " fill="#EC4A1C" transform="translate(264,327)"/>
<path d="M0 0 C2.99693138 0.99897713 4.02709413 1.65130253 6 4 C6 4.66 6 5.32 6 6 C6.99 6.33 7.98 6.66 9 7 C9.99 8.485 9.99 8.485 11 10 C13.58380177 10.25030977 13.58380177 10.25030977 16 10 C14.68 11.32 13.36 12.64 12 14 C10.36884105 12.42301238 8.74528667 10.83815634 7.125 9.25 C6.22007812 8.36828125 5.31515625 7.4865625 4.3828125 6.578125 C2.35457004 4.38363316 1.11119587 2.7332864 0 0 Z " fill="#0C2E48" transform="translate(225,150)"/>
<path d="M0 0 C2.40072955 2.88087546 4.47291037 5.56404834 6 9 C6.99 9 7.98 9 9 9 C10.5625 10.4375 10.5625 10.4375 12 12 C12.66 12.33 13.32 12.66 14 13 C14 13.66 14 14.32 14 15 C7.35981153 12.72336395 3.4866448 9.06934465 0 3 C0 2.01 0 1.02 0 0 Z " fill="#0F3049" transform="translate(224,288)"/>
<path d="M0 0 C0.33 0.66 0.66 1.32 1 2 C-1.77904424 5.60246476 -4.74106442 8.82682588 -8 12 C-8.66 12.66 -9.32 13.32 -10 14 C-10.99 13.67 -11.98 13.34 -13 13 C-8.71 8.71 -4.42 4.42 0 0 Z " fill="#EF460F" transform="translate(310,237)"/>
<path d="M0 0 C0.66 0.33 1.32 0.66 2 1 C1.98839844 2.16917969 1.97679687 3.33835937 1.96484375 4.54296875 C1.95546087 6.09114423 1.9463612 7.63932145 1.9375 9.1875 C1.92912109 9.95642578 1.92074219 10.72535156 1.91210938 11.51757812 C1.89508066 15.48526789 2.01395885 19.12571234 3 23 C0.984375 21.609375 0.984375 21.609375 -1 19 C-1.36750355 15.7167658 -1.05532047 12.53098346 -0.75 9.25 C-0.68425781 8.36183594 -0.61851562 7.47367187 -0.55078125 6.55859375 C-0.38606251 4.37018765 -0.20189011 2.18523822 0 0 Z " fill="#15344B" transform="translate(218,266)"/>
<path d="M0 0 C0.66 0.33 1.32 0.66 2 1 C2 1.66 2 2.32 2 3 C3.98 2.34 5.96 1.68 8 1 C8.33 1.99 8.66 2.98 9 4 C6.50590939 5.57035335 5.29556584 6.0274945 2.3125 5.75 C1.1678125 5.37875 1.1678125 5.37875 0 5 C-0.33 4.34 -0.66 3.68 -1 3 C-0.67 2.01 -0.34 1.02 0 0 Z " fill="#102D46" transform="translate(200,395)"/>
<path d="M0 0 C5.94 0 11.88 0 18 0 C17.67 0.99 17.34 1.98 17 3 C17 2.34 17 1.68 17 1 C10.565 1.495 10.565 1.495 4 2 C3.67 2.99 3.34 3.98 3 5 C3 4.34 3 3.68 3 3 C2.01 3 1.02 3 0 3 C0 2.01 0 1.02 0 0 Z " fill="#D35328" transform="translate(262,322)"/>
<path d="M0 0 C4.95 0 9.9 0 15 0 C15.33 1.32 15.66 2.64 16 4 C15.34 3.34 14.68 2.68 14 2 C11.78927023 1.75746187 11.78927023 1.75746187 9.375 1.875 C8.14910156 1.90207031 8.14910156 1.90207031 6.8984375 1.9296875 C5.95871094 1.96449219 5.95871094 1.96449219 5 2 C4.67 2.66 4.34 3.32 4 4 C2.68 3.67 1.36 3.34 0 3 C0 2.01 0 1.02 0 0 Z " fill="#D3542C" transform="translate(205,322)"/>
<path d="M0 0 C0.495 0.350625 0.99 0.70125 1.5 1.0625 C5.22697603 2.46011601 8.09802848 1.65032859 12 1 C10.35 2.98 8.7 4.96 7 7 C5.83040013 6.02433888 4.66438823 5.044375 3.5 4.0625 C2.8503125 3.51722656 2.200625 2.97195312 1.53125 2.41015625 C1.0259375 1.94480469 0.520625 1.47945312 0 1 C0 0.67 0 0.34 0 0 Z " fill="#D24C21" transform="translate(256,238)"/>
<path d="M0 0 C1.32 0.66 2.64 1.32 4 2 C2.576875 3.0828125 2.576875 3.0828125 1.125 4.1875 C-1.67412562 6.49809898 -2.98517558 8.44811452 -4 12 C-4.33 12 -4.66 12 -5 12 C-5 9.69 -5 7.38 -5 5 C-4.01 4.67 -3.02 4.34 -2 4 C-0.79117904 1.99983534 -0.79117904 1.99983534 0 0 Z " fill="#092F4A" transform="translate(241,121)"/>
<path d="M0 0 C0.33 0 0.66 0 1 0 C1.24867947 2.60364409 1.47457902 5.20589894 1.6875 7.8125 C1.79674805 8.91948242 1.79674805 8.91948242 1.90820312 10.04882812 C2.33135078 15.54974762 2.33135078 15.54974762 0.51953125 18.01171875 C-0.23263672 18.50091797 -0.23263672 18.50091797 -1 19 C-1.33 18.01 -1.66 17.02 -2 16 C-1.67 15.34 -1.34 14.68 -1 14 C-0.76970044 11.62876754 -0.58880058 9.25258057 -0.4375 6.875 C-0.35371094 5.59367187 -0.26992188 4.31234375 -0.18359375 2.9921875 C-0.09271484 1.51105469 -0.09271484 1.51105469 0 0 Z " fill="#DB4A25" transform="translate(281,270)"/>
<path d="M0 0 C1.98 0.99 1.98 0.99 4 2 C4 3.98 4 5.96 4 8 C2.68 8 1.36 8 0 8 C0 5.36 0 2.72 0 0 Z " fill="#012359" transform="translate(175,392)"/>
<path d="M0 0 C0.75 1.5625 0.75 1.5625 1 4 C0.04525277 6.63418211 -1.18710018 8.86055301 -3 11 C-5.75 11.9375 -5.75 11.9375 -8 12 C-7.34 11.01 -6.68 10.02 -6 9 C-5.34 9 -4.68 9 -4 9 C-2.47700477 6.06279492 -1.19899698 3.0831351 0 0 Z " fill="#103249" transform="translate(263,138)"/>
<path d="M0 0 C0 0.99 0 1.98 0 3 C0.66 3 1.32 3 2 3 C2 4.32 2 5.64 2 7 C1.01 6.67 0.02 6.34 -1 6 C-1 5.01 -1 4.02 -1 3 C-1.99 3 -2.98 3 -4 3 C-4 2.34 -4 1.68 -4 1 C-2 0 -2 0 0 0 Z " fill="#052948" transform="translate(210,390)"/>
<path d="M0 0 C0.99 0 1.98 0 3 0 C1.4169423 4.2742558 -1.50568404 6.26531794 -5 9 C-3.49901406 5.88256767 -1.97568178 2.84498177 0 0 Z " fill="#183044" transform="translate(256,166)"/>
<path d="M0 0 C1.25541557 3.76624671 0.37061958 5.37188934 -1 9 C-2.5625 7.1875 -2.5625 7.1875 -4 5 C-3 2 -3 2 0 0 Z " fill="#EA4718" transform="translate(150,336)"/>
<path d="M0 0 C2.18975773 3.28463659 2.99806563 6.20696275 4 10 C2.35 9.67 0.7 9.34 -1 9 C-0.67 6.03 -0.34 3.06 0 0 Z " fill="#E74B1D" transform="translate(221,326)"/>
<path d="M0 0 C1.98 0 3.96 0 6 0 C6 1.98 6 3.96 6 6 C3.97945196 4.35830472 1.97956942 2.69088222 0 1 C0 0.67 0 0.34 0 0 Z " fill="#E64814" transform="translate(266,192)"/>
<path d="M0 0 C4.2742558 1.5830577 6.26531794 4.50568404 9 8 C8.01 8.33 7.02 8.66 6 9 C4 6 2 3 0 0 Z " fill="#0D304A" transform="translate(266,112)"/>
<path d="M0 0 C1.65 1.65 3.3 3.3 5 5 C4.67 5.99 4.34 6.98 4 8 C2 6.8125 2 6.8125 0 5 C-0.25 2.3125 -0.25 2.3125 0 0 Z " fill="#0F2D4E" transform="translate(315,393)"/>
<path d="M0 0 C0.99 0 1.98 0 3 0 C2.67 0.99 2.34 1.98 2 3 C1.34 3 0.68 3 0 3 C-0.33 4.98 -0.66 6.96 -1 9 C-1.33 9 -1.66 9 -2 9 C-2.125 5.625 -2.125 5.625 -2 2 C-1.34 1.34 -0.68 0.68 0 0 Z " fill="#163C57" transform="translate(334,387)"/>
<path d="M0 0 C0.33 0.66 0.66 1.32 1 2 C-1.47812494 5.45167403 -2.79606135 7.23163306 -7 8 C-6.02133662 6.85373678 -5.04205413 5.70800212 -4.0625 4.5625 C-3.51722656 3.92441406 -2.97195313 3.28632813 -2.41015625 2.62890625 C-1.63204305 1.73008851 -0.84063472 0.84063472 0 0 Z " fill="#ED460E" transform="translate(294,253)"/>
<path d="M0 0 C0.66 0.33 1.32 0.66 2 1 C1.42415568 3.38564077 0.77772405 5.66682784 0 8 C-0.99 7.01 -1.98 6.02 -3 5 C-1.125 1.125 -1.125 1.125 0 0 Z " fill="#CC4F25" transform="translate(255,230)"/>
<path d="M0 0 C2.3431213 0.25561323 4.67843403 0.59270772 7 1 C7.33 1.66 7.66 2.32 8 3 C5.03 3 2.06 3 -1 3 C-0.67 2.01 -0.34 1.02 0 0 Z " fill="#0A2D47" transform="translate(188,202)"/>
<path d="M0 0 C0.33 0 0.66 0 1 0 C2.0070238 5.03511899 1.97387813 8.23947038 0 13 C-0.33 13 -0.66 13 -1 13 C-1.0272415 11.58344207 -1.04650467 10.16672955 -1.0625 8.75 C-1.07410156 7.96109375 -1.08570313 7.1721875 -1.09765625 6.359375 C-1.00385306 4.09308998 -0.63241063 2.1711105 0 0 Z " fill="#092F4A" transform="translate(163,185)"/>
<path d="M0 0 C0.1875 2.375 0.1875 2.375 0 5 C-0.99 5.66 -1.98 6.32 -3 7 C-3.6875 5.1875 -3.6875 5.1875 -4 3 C-1.64285714 0 -1.64285714 0 0 0 Z " fill="#1A3854" transform="translate(173,393)"/>
<path d="M0 0 C-0.66 0 -1.32 0 -2 0 C-2 0.66 -2 1.32 -2 2 C-2.99 2.33 -3.98 2.66 -5 3 C-5.66 3.66 -6.32 4.32 -7 5 C-6.625 2.5625 -6.625 2.5625 -6 0 C-3.50907189 -1.24546405 -2.58919267 -0.7767578 0 0 Z " fill="#113755" transform="translate(206,393)"/>
<path d="M0 0 C2 2 2 2 2.125 4.625 C2.08375 5.40875 2.0425 6.1925 2 7 C0.68 6.67 -0.64 6.34 -2 6 C-2 5.34 -2 4.68 -2 4 C-1.34 4 -0.68 4 0 4 C0 2.68 0 1.36 0 0 Z " fill="#0D324B" transform="translate(276,266)"/>
<path d="M0 0 C0.99 0 1.98 0 3 0 C3 0.99 3 1.98 3 3 C2.01 3 1.02 3 0 3 C0 2.01 0 1.02 0 0 Z " fill="#273C50" transform="translate(309,382)"/>
</svg>
